<mxfile host="app.diagrams.net" modified="2023-08-02T09:38:28.166Z" agent="Mozilla/5.0 (Macintosh; Intel Mac OS X 10_15_7) AppleWebKit/537.36 (KHTML, like Gecko) Chrome/115.0.0.0 Safari/537.36" etag="9wT8nYgM3v_VgtZMX6dR" version="21.2.9" type="github">
  <diagram name="페이지-1" id="u8qaSXCpY4TYcmQIAKb5">
    <mxGraphModel dx="447" dy="843" grid="1" gridSize="10" guides="1" tooltips="1" connect="1" arrows="1" fold="1" page="1" pageScale="1" pageWidth="827" pageHeight="1169" math="0" shadow="0">
      <root>
        <mxCell id="0" />
        <mxCell id="1" parent="0" />
        <mxCell id="jaM6gp16wA8_23zkdnMe-1" value="이용자" style="shape=umlActor;verticalLabelPosition=bottom;verticalAlign=top;html=1;" vertex="1" parent="1">
          <mxGeometry x="70" y="190" width="30" height="60" as="geometry" />
        </mxCell>
        <mxCell id="jaM6gp16wA8_23zkdnMe-3" value="게시판 서비스" style="shape=umlFrame;whiteSpace=wrap;html=1;pointerEvents=0;width=130;height=30;" vertex="1" parent="1">
          <mxGeometry x="160" y="60" width="590" height="550" as="geometry" />
        </mxCell>
        <mxCell id="jaM6gp16wA8_23zkdnMe-16" style="rounded=0;orthogonalLoop=1;jettySize=auto;html=1;exitX=0;exitY=0.5;exitDx=0;exitDy=0;entryX=1;entryY=0.3333333333333333;entryDx=0;entryDy=0;entryPerimeter=0;endArrow=none;endFill=0;" edge="1" parent="1" source="jaM6gp16wA8_23zkdnMe-4" target="jaM6gp16wA8_23zkdnMe-1">
          <mxGeometry relative="1" as="geometry" />
        </mxCell>
        <mxCell id="jaM6gp16wA8_23zkdnMe-4" value="회원 가입" style="rounded=1;whiteSpace=wrap;html=1;arcSize=40;fontColor=#000000;fillColor=#ffffc0;strokeColor=#ff0000;" vertex="1" parent="1">
          <mxGeometry x="190" y="190" width="120" height="40" as="geometry" />
        </mxCell>
        <mxCell id="jaM6gp16wA8_23zkdnMe-19" style="rounded=0;orthogonalLoop=1;jettySize=auto;html=1;exitX=0;exitY=0.5;exitDx=0;exitDy=0;endArrow=none;endFill=0;" edge="1" parent="1" source="jaM6gp16wA8_23zkdnMe-6">
          <mxGeometry relative="1" as="geometry">
            <mxPoint x="100" y="210" as="targetPoint" />
          </mxGeometry>
        </mxCell>
        <mxCell id="jaM6gp16wA8_23zkdnMe-26" style="rounded=0;orthogonalLoop=1;jettySize=auto;html=1;exitX=1;exitY=0.5;exitDx=0;exitDy=0;entryX=0.5;entryY=1;entryDx=0;entryDy=0;dashed=1;" edge="1" parent="1" source="jaM6gp16wA8_23zkdnMe-6" target="jaM6gp16wA8_23zkdnMe-9">
          <mxGeometry relative="1" as="geometry" />
        </mxCell>
        <mxCell id="jaM6gp16wA8_23zkdnMe-6" value="게시판 보기" style="rounded=1;whiteSpace=wrap;html=1;arcSize=40;fontColor=#000000;fillColor=#ffffc0;strokeColor=#ff0000;" vertex="1" parent="1">
          <mxGeometry x="190" y="280" width="120" height="40" as="geometry" />
        </mxCell>
        <mxCell id="jaM6gp16wA8_23zkdnMe-20" style="rounded=0;orthogonalLoop=1;jettySize=auto;html=1;exitX=0;exitY=0.5;exitDx=0;exitDy=0;endArrow=none;endFill=0;" edge="1" parent="1" source="jaM6gp16wA8_23zkdnMe-7">
          <mxGeometry relative="1" as="geometry">
            <mxPoint x="100" y="210" as="targetPoint" />
          </mxGeometry>
        </mxCell>
        <mxCell id="jaM6gp16wA8_23zkdnMe-27" style="rounded=0;orthogonalLoop=1;jettySize=auto;html=1;exitX=1;exitY=0.5;exitDx=0;exitDy=0;dashed=1;" edge="1" parent="1" source="jaM6gp16wA8_23zkdnMe-7">
          <mxGeometry relative="1" as="geometry">
            <mxPoint x="410" y="120" as="targetPoint" />
          </mxGeometry>
        </mxCell>
        <mxCell id="jaM6gp16wA8_23zkdnMe-7" value="게시글 보기" style="rounded=1;whiteSpace=wrap;html=1;arcSize=40;fontColor=#000000;fillColor=#ffffc0;strokeColor=#ff0000;" vertex="1" parent="1">
          <mxGeometry x="190" y="370" width="120" height="40" as="geometry" />
        </mxCell>
        <mxCell id="jaM6gp16wA8_23zkdnMe-18" style="rounded=0;orthogonalLoop=1;jettySize=auto;html=1;exitX=0;exitY=0.5;exitDx=0;exitDy=0;entryX=1;entryY=0.3333333333333333;entryDx=0;entryDy=0;entryPerimeter=0;endArrow=none;endFill=0;" edge="1" parent="1" source="jaM6gp16wA8_23zkdnMe-9" target="jaM6gp16wA8_23zkdnMe-1">
          <mxGeometry relative="1" as="geometry" />
        </mxCell>
        <mxCell id="jaM6gp16wA8_23zkdnMe-21" style="rounded=0;orthogonalLoop=1;jettySize=auto;html=1;exitX=1;exitY=0.5;exitDx=0;exitDy=0;endArrow=classic;endFill=1;dashed=1;" edge="1" parent="1" source="jaM6gp16wA8_23zkdnMe-9" target="jaM6gp16wA8_23zkdnMe-10">
          <mxGeometry relative="1" as="geometry" />
        </mxCell>
        <mxCell id="jaM6gp16wA8_23zkdnMe-24" value="&amp;lt;&amp;lt;include&amp;gt;&amp;gt;" style="edgeLabel;html=1;align=center;verticalAlign=middle;resizable=0;points=[];" vertex="1" connectable="0" parent="jaM6gp16wA8_23zkdnMe-21">
          <mxGeometry x="-0.0383" relative="1" as="geometry">
            <mxPoint as="offset" />
          </mxGeometry>
        </mxCell>
        <mxCell id="jaM6gp16wA8_23zkdnMe-9" value="회원 로그인" style="rounded=1;whiteSpace=wrap;html=1;arcSize=40;fontColor=#000000;fillColor=#ffffc0;strokeColor=#ff0000;" vertex="1" parent="1">
          <mxGeometry x="350" y="80" width="120" height="40" as="geometry" />
        </mxCell>
        <mxCell id="jaM6gp16wA8_23zkdnMe-10" value="인증" style="rounded=1;whiteSpace=wrap;html=1;arcSize=40;fontColor=#000000;fillColor=#ffffc0;strokeColor=#ff0000;" vertex="1" parent="1">
          <mxGeometry x="580" y="80" width="120" height="40" as="geometry" />
        </mxCell>
        <mxCell id="jaM6gp16wA8_23zkdnMe-22" style="rounded=0;orthogonalLoop=1;jettySize=auto;html=1;exitX=0;exitY=0.5;exitDx=0;exitDy=0;entryX=1;entryY=0.5;entryDx=0;entryDy=0;endArrow=classic;endFill=1;dashed=1;" edge="1" parent="1" source="jaM6gp16wA8_23zkdnMe-11" target="jaM6gp16wA8_23zkdnMe-9">
          <mxGeometry relative="1" as="geometry" />
        </mxCell>
        <mxCell id="jaM6gp16wA8_23zkdnMe-25" value="&amp;lt;&amp;lt;extend&amp;gt;&amp;gt;" style="edgeLabel;html=1;align=center;verticalAlign=middle;resizable=0;points=[];" vertex="1" connectable="0" parent="jaM6gp16wA8_23zkdnMe-22">
          <mxGeometry x="-0.0613" y="-1" relative="1" as="geometry">
            <mxPoint as="offset" />
          </mxGeometry>
        </mxCell>
        <mxCell id="jaM6gp16wA8_23zkdnMe-11" value="로그인 실패" style="rounded=1;whiteSpace=wrap;html=1;arcSize=40;fontColor=#000000;fillColor=#ffffc0;strokeColor=#ff0000;" vertex="1" parent="1">
          <mxGeometry x="580" y="170" width="120" height="40" as="geometry" />
        </mxCell>
        <mxCell id="jaM6gp16wA8_23zkdnMe-28" style="rounded=0;orthogonalLoop=1;jettySize=auto;html=1;exitX=0;exitY=0.5;exitDx=0;exitDy=0;entryX=1;entryY=0.5;entryDx=0;entryDy=0;dashed=1;" edge="1" parent="1" source="jaM6gp16wA8_23zkdnMe-12" target="jaM6gp16wA8_23zkdnMe-6">
          <mxGeometry relative="1" as="geometry" />
        </mxCell>
        <mxCell id="jaM6gp16wA8_23zkdnMe-12" value="게시판 정렬하기" style="rounded=1;whiteSpace=wrap;html=1;arcSize=40;fontColor=#000000;fillColor=#ffffc0;strokeColor=#ff0000;" vertex="1" parent="1">
          <mxGeometry x="390" y="240" width="120" height="40" as="geometry" />
        </mxCell>
        <mxCell id="jaM6gp16wA8_23zkdnMe-29" style="rounded=0;orthogonalLoop=1;jettySize=auto;html=1;exitX=0;exitY=0.5;exitDx=0;exitDy=0;dashed=1;" edge="1" parent="1" source="jaM6gp16wA8_23zkdnMe-13">
          <mxGeometry relative="1" as="geometry">
            <mxPoint x="310" y="300" as="targetPoint" />
          </mxGeometry>
        </mxCell>
        <mxCell id="jaM6gp16wA8_23zkdnMe-13" value="게시판 검색" style="rounded=1;whiteSpace=wrap;html=1;arcSize=40;fontColor=#000000;fillColor=#ffffc0;strokeColor=#ff0000;" vertex="1" parent="1">
          <mxGeometry x="390" y="310" width="120" height="40" as="geometry" />
        </mxCell>
        <mxCell id="jaM6gp16wA8_23zkdnMe-30" style="rounded=0;orthogonalLoop=1;jettySize=auto;html=1;exitX=0;exitY=0.5;exitDx=0;exitDy=0;entryX=1;entryY=0.5;entryDx=0;entryDy=0;dashed=1;" edge="1" parent="1" source="jaM6gp16wA8_23zkdnMe-14" target="jaM6gp16wA8_23zkdnMe-7">
          <mxGeometry relative="1" as="geometry" />
        </mxCell>
        <mxCell id="jaM6gp16wA8_23zkdnMe-14" value="게시글 쓰기, 수정, 삭제" style="rounded=1;whiteSpace=wrap;html=1;arcSize=40;fontColor=#000000;fillColor=#ffffc0;strokeColor=#ff0000;" vertex="1" parent="1">
          <mxGeometry x="395" y="380" width="120" height="40" as="geometry" />
        </mxCell>
        <mxCell id="jaM6gp16wA8_23zkdnMe-31" style="rounded=0;orthogonalLoop=1;jettySize=auto;html=1;exitX=0;exitY=0.5;exitDx=0;exitDy=0;dashed=1;" edge="1" parent="1" source="jaM6gp16wA8_23zkdnMe-15">
          <mxGeometry relative="1" as="geometry">
            <mxPoint x="310" y="390" as="targetPoint" />
          </mxGeometry>
        </mxCell>
        <mxCell id="jaM6gp16wA8_23zkdnMe-15" value="댓글 보기, 쓰기,&lt;br&gt;&amp;nbsp;수정, 삭제" style="rounded=1;whiteSpace=wrap;html=1;arcSize=40;fontColor=#000000;fillColor=#ffffc0;strokeColor=#ff0000;" vertex="1" parent="1">
          <mxGeometry x="395" y="450" width="120" height="40" as="geometry" />
        </mxCell>
      </root>
    </mxGraphModel>
  </diagram>
</mxfile>
